<?xml version="1.0" encoding="UTF-8"?>
<svg width="37px" height="33px" viewBox="0 0 37 33" version="1.1" xmlns="http://www.w3.org/2000/svg" xmlns:xlink="http://www.w3.org/1999/xlink">
    <!-- Generator: Sketch 52.2 (67145) - http://www.bohemiancoding.com/sketch -->
    <title>home (1)</title>
    <desc>Created with Sketch.</desc>
    <g id="Page-1" stroke="none" stroke-width="1" fill="none" fill-rule="evenodd">
        <g id="Artboard-Copy" transform="translate(-45.000000, -239.000000)" fill="#000000">
            <g id="home-(1)" transform="translate(45.000000, 239.000000)">
                <path d="M36.6064882,13.2351529 L19.0679423,0.188652496 C18.7297398,-0.0628841655 18.2702758,-0.0628841655 17.9322178,0.188652496 L0.393527393,13.2351529 C-0.0348624455,13.5538687 -0.1279404,14.1650162 0.185764103,14.6002495 C0.499468605,15.0354828 1.10107883,15.1299008 1.5293964,14.8113318 L18.5000078,2.18721627 L35.4706192,14.8112584 C35.6417439,14.9386419 35.8406186,14.9999476 36.0377588,14.9999476 C36.3337583,14.9999476 36.6258554,14.861551 36.8141793,14.6001761 C37.127956,14.1650162 37.0348781,13.5538687 36.6064882,13.2351529 Z" id="Path"></path>
                <path d="M32.03328,15 C31.4994914,15 31.0666328,15.4260033 31.0666328,15.9514981 L31.0666328,31.0968608 L23.3335998,31.0968608 L23.3335998,22.8295637 C23.3335998,20.206024 21.1651649,18.0717158 18.5,18.0717158 C15.8348351,18.0717158 13.6664002,20.2061671 13.6664002,22.8295637 L13.6664002,31.0969324 L5.93329458,31.0969324 L5.93329458,15.9515696 C5.93329458,15.4260749 5.50043598,15.0000715 4.96664729,15.0000715 C4.4328586,15.0000715 4,15.4260749 4,15.9515696 L4,32.0485019 C4,32.5739967 4.4328586,33 4.96664729,33 L14.6330475,33 C15.1414039,33 15.5574044,32.613407 15.5959163,32.1226019 C15.5982415,32.1003576 15.5996948,32.0760391 15.5996948,32.0485019 L15.5996948,22.8296352 C15.5996948,21.2554399 16.9007412,19.9747834 18.5,19.9747834 C20.0992588,19.9747834 21.4003052,21.2555114 21.4003052,22.8296352 L21.4003052,32.0485019 C21.4003052,32.0758961 21.4017585,32.0997854 21.4040837,32.1217436 C21.4421596,32.6129063 21.8583055,33 22.3669525,33 L32.0333527,33 C32.5672141,33 33,32.5739967 33,32.0485019 L33,15.9515696 C32.9999273,15.4260033 32.5671414,15 32.03328,15 Z" id="Path"></path>
            </g>
        </g>
    </g>
</svg>