<?xml version="1.0" encoding="UTF-8"?>
<svg width="40px" height="40px" viewBox="0 0 40 40" version="1.1" xmlns="http://www.w3.org/2000/svg" xmlns:xlink="http://www.w3.org/1999/xlink">
    <!-- Generator: Sketch 52.2 (67145) - http://www.bohemiancoding.com/sketch -->
    <title>settings (3)</title>
    <desc>Created with Sketch.</desc>
    <g id="Page-1" stroke="none" stroke-width="1" fill="none" fill-rule="evenodd">
        <g id="Artboard-Copy" transform="translate(-43.000000, -516.000000)" fill="#000000" fill-rule="nonzero">
            <g id="settings-(3)" transform="translate(43.000000, 516.000000)">
                <path d="M37.952564,15.8011281 L35.1449767,15.3248381 C34.8525197,14.3806142 34.4765035,13.4698141 34.0169282,12.6007938 L35.6713993,10.2861918 C36.3732961,9.30018801 36.2646692,7.95487779 35.40401,7.10256946 L32.9139475,4.61249217 C32.4460163,4.14455818 31.8276786,3.88552329 31.1675613,3.88552329 C30.6494946,3.88552329 30.1564957,4.04428661 29.7386999,4.34510132 L27.4157557,5.9995822 C26.5133169,5.52329225 25.5690986,5.13056194 24.5914566,4.8381032 L24.1235254,2.06392313 C23.9229834,0.869020263 22.8952059,0 21.6835983,0 L18.1657583,0 C16.9541507,0 15.9263732,0.869020263 15.7258312,2.06392313 L15.2411882,4.90495091 C14.3053257,5.19740965 13.3945311,5.581784 12.5255159,6.04971799 L10.2276394,4.3952371 C9.8098437,4.09442239 9.30848883,3.93565908 8.79042213,3.93565908 C8.13030488,3.93565908 7.50361128,4.19469396 7.04403598,4.66262795 L4.54561753,7.15270524 C3.69331424,8.00501358 3.57633144,9.35032379 4.27822826,10.3363276 L5.94941117,12.6843535 C5.48983587,13.5617297 5.12217563,14.4725298 4.83807454,15.4167537 L2.0639109,15.8846877 C0.869015115,16.0852308 0,17.1130144 0,18.3246292 L0,21.8424901 C0,23.0541049 0.869015115,24.0818884 2.0639109,24.2824316 L4.90492185,24.7670775 C5.19737886,25.7029455 5.58175093,26.6137456 6.04968215,27.4827658 L4.40356698,29.7723 C3.70167015,30.7583037 3.81029704,32.103614 4.67095624,32.9559223 L7.16101879,35.4459996 C7.62895,35.9139336 8.24728768,36.1729685 8.90740493,36.1729685 C9.42547163,36.1729685 9.91847059,36.0142051 10.3362663,35.7133904 L12.6842783,34.0421976 C13.5282257,34.4850637 14.4139526,34.8443702 15.3247473,35.1284729 L15.7926785,37.9360769 C15.9932205,39.1309797 17.020998,40 18.2326056,40 L21.7588015,40 C22.9704091,40 23.9981866,39.1309797 24.1987286,37.9360769 L24.6750157,35.1284729 C25.6192341,34.8360142 26.5300288,34.4599958 27.3990439,34.0004178 L29.7136322,35.6548987 C30.1314279,35.9557134 30.6327828,36.1144767 31.1508495,36.1144767 C31.8109668,36.1144767 32.4293044,35.8554418 32.8972357,35.3875078 L35.3872982,32.8974305 C36.2396015,32.0451222 36.3565843,30.699812 35.6546875,29.7138082 L34.0002164,27.3908502 C34.4597917,26.513474 34.8441638,25.6026739 35.1282648,24.6668059 L37.9358521,24.1988719 C39.1307479,23.9983288 39.999763,22.9705452 39.999763,21.7589304 L39.999763,18.2410696 C40.0164749,17.0294548 39.1474598,16.0016712 37.952564,15.8011281 Z M37.7603779,21.7589304 C37.7603779,21.867558 37.6851747,21.9594736 37.5765478,21.9761855 L34.0670637,22.561103 C33.6242002,22.6363067 33.2732518,22.9621893 33.1646249,23.3883434 C32.8471002,24.6166701 32.3624571,25.7948611 31.7106958,26.8894924 C31.4850861,27.2738667 31.5017979,27.7501567 31.7608313,28.1178191 L33.8247422,31.0256946 C33.8832336,31.1092542 33.8748777,31.2345937 33.7996744,31.3097974 L31.3096119,33.7998747 C31.2511205,33.8583664 31.1926291,33.8667224 31.1508495,33.8667224 C31.100714,33.8667224 31.0589345,33.8500104 31.0255108,33.8249426 L28.1260084,31.7610194 C27.7667041,31.5019845 27.2820611,31.4852726 26.897689,31.7108836 C25.8030642,32.3626488 24.6248802,32.8472948 23.3965608,33.1648214 C22.9620532,33.2734489 22.6361726,33.6327554 22.5693252,34.0672655 L21.9760553,37.5767704 C21.9593435,37.685398 21.8674284,37.7606016 21.7588015,37.7606016 L18.2409615,37.7606016 C18.1323346,37.7606016 18.0404196,37.685398 18.0237077,37.5767704 L17.4387937,34.0672655 C17.3635905,33.6243994 17.0377098,33.2734489 16.6115582,33.1648214 C15.4166624,32.8556507 14.2635462,32.3793608 13.1856332,31.7610194 C13.010159,31.6607479 12.809617,31.6106121 12.617431,31.6106121 C12.3918213,31.6106121 12.1578557,31.6774598 11.9656697,31.8195112 L9.04109956,33.9001462 C8.99931999,33.9252141 8.95754042,33.941926 8.91576084,33.941926 C8.88233719,33.941926 8.81548987,33.9335701 8.75699847,33.8750783 L6.26693593,31.385001 C6.1917327,31.3097974 6.18337678,31.1928139 6.24186818,31.1008983 L8.29742317,28.2180907 C8.55645652,27.8504282 8.57316835,27.3657823 8.34755865,26.981408 C7.69579732,25.8951327 7.19444244,24.7169417 6.87691769,23.488615 C6.75993489,23.0624608 6.40898647,22.7365782 5.97447892,22.6613746 L2.43992705,22.0597451 C2.33130016,22.0430332 2.25609693,21.9511176 2.25609693,21.8424901 L2.25609693,18.3246292 C2.25609693,18.2160017 2.33130016,18.1240861 2.43992705,18.1073741 L5.92434343,17.5224567 C6.3672069,17.447253 6.72651123,17.1213704 6.83513812,16.6868602 C7.14430696,15.4585335 7.62059409,14.2719866 8.26399951,13.1773553 C8.4896092,12.792981 8.46454146,12.316691 8.20550811,11.9573846 L6.12488538,9.03279716 C6.06639398,8.94923752 6.07474989,8.82389806 6.14995312,8.74869438 L8.64001566,6.25861709 C8.69850707,6.20012534 8.75699847,6.19176938 8.79877804,6.19176938 C8.84891353,6.19176938 8.8906931,6.2084813 8.92411676,6.2335492 L11.8069073,8.28911636 C12.1745675,8.54815124 12.6592106,8.56486317 13.0435826,8.33925214 C14.1298515,7.68748694 15.3080355,7.1861291 16.5363549,6.86860247 C16.9625066,6.75161897 17.2883872,6.40066848 17.3635905,5.96615835 L17.9652163,2.43158554 C17.9819282,2.32295801 18.0738432,2.24775433 18.1824701,2.24775433 L21.7003101,2.24775433 C21.808937,2.24775433 21.9008521,2.32295801 21.9175639,2.43158554 L22.5024779,5.91602256 C22.5776812,6.35888866 22.9035618,6.71819511 23.3380694,6.82682264 C24.5998125,7.14434928 25.8030642,7.63735116 26.9227567,8.29747232 C27.3071288,8.52308335 27.7834159,8.50637142 28.1510762,8.24733654 L31.0338667,6.17505745 C31.0756463,6.14998956 31.1174259,6.13327763 31.1592054,6.13327763 C31.1926291,6.13327763 31.2594764,6.14163359 31.3179678,6.20012534 L33.8080303,8.69020263 C33.8832336,8.76540631 33.8915895,8.88238981 33.8330981,8.97430541 L31.7691872,11.8738249 C31.5101538,12.2331314 31.493442,12.7177773 31.7190517,13.1021517 C32.370813,14.196783 32.8554561,15.3749739 33.1729808,16.6033006 C33.2816077,17.0378107 33.6409121,17.3636933 34.0754196,17.430541 L37.5849037,18.0238145 C37.6935306,18.0405264 37.7687338,18.132442 37.7687338,18.2410696 L37.7687338,21.7589304 L37.7603779,21.7589304 Z" id="Shape"></path>
                <path d="M20.5,11 C15.8097773,11 12,14.8097773 12,19.5 C12,24.1902227 15.8097773,28 20.5,28 C25.1902227,28 29,24.1902227 29,19.5 C29,14.8097773 25.1902227,11 20.5,11 Z M20.5,25.7783156 C17.035818,25.7783156 14.2216844,22.964182 14.2216844,19.5 C14.2216844,16.035818 17.035818,13.2216844 20.5,13.2216844 C23.964182,13.2216844 26.7783156,16.035818 26.7783156,19.5 C26.7783156,22.964182 23.964182,25.7783156 20.5,25.7783156 Z" id="Shape"></path>
            </g>
        </g>
    </g>
</svg>