<?xml version="1.0" encoding="UTF-8"?>
<svg width="43px" height="41px" viewBox="0 0 43 41" version="1.1" xmlns="http://www.w3.org/2000/svg" xmlns:xlink="http://www.w3.org/1999/xlink">
    <!-- Generator: Sketch 52.2 (67145) - http://www.bohemiancoding.com/sketch -->
    <title>star (3)</title>
    <desc>Created with Sketch.</desc>
    <g id="Page-1" stroke="none" stroke-width="1" fill="none" fill-rule="evenodd">
        <g id="Artboard-Copy" transform="translate(-43.000000, -425.000000)" fill="#000000" fill-rule="nonzero">
            <g id="star-(3)" transform="translate(43.000000, 425.000000)">
                <path d="M43,15.8882511 C43,15.2509402 42.5177519,14.8548718 41.5525317,14.699684 L28.5806199,12.8140835 L22.766399,1.05907799 C22.4392885,0.352905345 22.0168689,0 21.5001358,0 C20.9834931,0 20.5613451,0.352905345 20.2339631,1.05907799 L14.4194706,12.8140835 L1.44692522,14.699684 C0.48242909,14.8548718 0,15.2509402 0,15.8882511 C0,16.2501148 0.215418618,16.6634665 0.646165342,17.1284871 L10.052537,26.2739839 L7.83019523,39.1911339 C7.79571015,39.4323764 7.77860338,39.605119 7.77860338,39.7080045 C7.77860338,40.0696872 7.86893438,40.3752671 8.0497774,40.6251964 C8.23052992,40.8754878 8.50170394,41 8.86366153,41 C9.17393675,41 9.518335,40.8971145 9.89730885,40.6902577 L21.4998642,34.5925963 L33.1029627,40.6896243 C33.4650108,40.8964811 33.8094996,41 34.136248,41 C34.8433279,41 35.1965058,40.5701794 35.1965058,39.7086379 C35.1965058,39.4850407 35.1878167,39.312841 35.1705289,39.1914054 L32.9483682,26.2747078 L42.3284913,17.1291205 C42.7763448,16.6806593 43,16.2671266 43,15.8882511 Z M30.4192817,25.3324949 L32.5739107,38.0207528 L21.2892366,32.0227536 L9.97436769,38.0207528 L12.1596108,25.3324949 L3,16.3811507 L15.631907,14.5127467 L21.2891318,3 L26.9461468,14.5127467 L39.5791022,16.3811507 L30.4192817,25.3324949 Z" id="Shape"></path>
            </g>
        </g>
    </g>
</svg>